# xmcd
#
# Track frame offsets:
#	150
#	27749
#	50313
#	75516
#	102403
#	123627
#	144102
#	163677
#	182580
#	211604
#	231218
#	260805
#	287265
#	307671
#
# Disc length: 4296 seconds
#
# Revision: 0
# Processed by: cddbd v1.5.1PL0 Copyright (c) Steve Scherf et al.
# Submitted via: EasyCDDAExtractor 8.0.2.1
#
DISCID=b510c60e
DTITLE=Various Artist - Blues Party vol. 2
DYEAR=1999
DGENRE=Blues
TTITLE0=Artie White - Proud To Be Your Man
TTITLE1=Bernard Allison - A Change Must Come
TTITLE2=Clarence "Gatemouth" Brown - Someday My Luck Will Change
TTITLE3=David Malone - Trying To Make It Over
TTITLE4=Eddie Shaw and The Wolf Gang - Fannie Mae Jones
TTITLE5=Freddie Roulette - Sleepwalk
TTITLE6=Guy Davis - Po' Boy
TTITLE7=Hubert Sumlin - Blues For Henry
TTITLE8=James Cotton - 23 Hours Too Long
TTITLE9=Kenny Neal - Blues Fallin` Down Like Rain
TTITLE10=Larry McCrey - Gone For Good
TTITLE11=Magic Slim - Crazy Woman
TTITLE12=Nobile Watts - Bad Bitch
TTITLE13=Otis Clay - Working Hard
EXTD=
EXTT0=
EXTT1=
EXTT2=
EXTT3=
EXTT4=
EXTT5=
EXTT6=
EXTT7=
EXTT8=
EXTT9=
EXTT10=
EXTT11=
EXTT12=
EXTT13=
PLAYORDER=
